<?xml version="1.0" encoding="UTF-8"?>
<svg id="vexly-logo-2-full-light" width="180" height="48" viewBox="0 0 180 48" fill="none" xmlns="http://www.w3.org/2000/svg"><defs/><g><path d="M10 10L24 38L28 10L38 38L24 20L10 10Z" fill="#ffffff" opacity="0.9"/><path d="M20 10L34 38L38 10H28L24 28L20 10Z" fill="#ffffff" opacity="0.6"/></g><g fill="#ffffff"><path d="M60 14L66 32L72 14H78L70 36H62L54 14H60Z"/><path d="M82 14H100V19H88V22H98V27H88V31H100V36H82V14Z"/><path d="M104 14L112 22L120 14H128L116 26L128 36H120L112 28L104 36H96L108 26L96 14H104Z"/><path d="M132 14H138V31H150V36H132V14Z"/><path d="M154 14L162 22L168 14H175L164 26V36H160V26L149 14H154Z"/></g></svg>